<mxfile host="65bd71144e">
    <diagram id="iqULjE4o9p0kMfshamyn" name="Page-1">
        <mxGraphModel dx="1614" dy="771" grid="1" gridSize="10" guides="1" tooltips="1" connect="1" arrows="1" fold="1" page="1" pageScale="1" pageWidth="2400" pageHeight="1600" math="0" shadow="0">
            <root>
                <mxCell id="0"/>
                <mxCell id="1" parent="0"/>
                <mxCell id="rCRO5mDwt1Ey6ZGiLpo1-23" value="" style="group" parent="1" vertex="1" connectable="0">
                    <mxGeometry x="10" y="20" width="560" height="260" as="geometry"/>
                </mxCell>
                <mxCell id="tvMCfg9BwbrJC1F9YZ1s-1" value="Customer" style="whiteSpace=wrap;html=1;align=center;" parent="rCRO5mDwt1Ey6ZGiLpo1-23" vertex="1">
                    <mxGeometry x="320" y="160" width="110" height="60" as="geometry"/>
                </mxCell>
                <mxCell id="tvMCfg9BwbrJC1F9YZ1s-2" value="&lt;u&gt;Customer ID&lt;/u&gt;" style="ellipse;whiteSpace=wrap;html=1;align=center;" parent="rCRO5mDwt1Ey6ZGiLpo1-23" vertex="1">
                    <mxGeometry x="200" y="70" width="100" height="40" as="geometry"/>
                </mxCell>
                <mxCell id="tvMCfg9BwbrJC1F9YZ1s-8" value="Gender" style="ellipse;whiteSpace=wrap;html=1;align=center;" parent="rCRO5mDwt1Ey6ZGiLpo1-23" vertex="1">
                    <mxGeometry x="460" y="170" width="100" height="40" as="geometry"/>
                </mxCell>
                <mxCell id="tvMCfg9BwbrJC1F9YZ1s-9" value="Name" style="ellipse;whiteSpace=wrap;html=1;align=center;" parent="rCRO5mDwt1Ey6ZGiLpo1-23" vertex="1">
                    <mxGeometry x="320" y="50" width="100" height="40" as="geometry"/>
                </mxCell>
                <mxCell id="tvMCfg9BwbrJC1F9YZ1s-10" value="Email Address" style="ellipse;whiteSpace=wrap;html=1;align=center;" parent="rCRO5mDwt1Ey6ZGiLpo1-23" vertex="1">
                    <mxGeometry x="440" y="60" width="100" height="40" as="geometry"/>
                </mxCell>
                <mxCell id="tvMCfg9BwbrJC1F9YZ1s-11" value="Password" style="ellipse;whiteSpace=wrap;html=1;align=center;" parent="rCRO5mDwt1Ey6ZGiLpo1-23" vertex="1">
                    <mxGeometry x="450" y="120" width="100" height="40" as="geometry"/>
                </mxCell>
                <mxCell id="tvMCfg9BwbrJC1F9YZ1s-12" value="Address" style="ellipse;whiteSpace=wrap;html=1;align=center;" parent="rCRO5mDwt1Ey6ZGiLpo1-23" vertex="1">
                    <mxGeometry x="170" y="130" width="100" height="40" as="geometry"/>
                </mxCell>
                <mxCell id="rCRO5mDwt1Ey6ZGiLpo1-1" value="" style="endArrow=none;html=1;rounded=0;" parent="rCRO5mDwt1Ey6ZGiLpo1-23" source="tvMCfg9BwbrJC1F9YZ1s-1" edge="1">
                    <mxGeometry relative="1" as="geometry">
                        <mxPoint x="370" as="sourcePoint"/>
                        <mxPoint x="370" y="90" as="targetPoint"/>
                    </mxGeometry>
                </mxCell>
                <mxCell id="rCRO5mDwt1Ey6ZGiLpo1-2" value="" style="endArrow=none;html=1;rounded=0;entryX=0;entryY=1;entryDx=0;entryDy=0;" parent="rCRO5mDwt1Ey6ZGiLpo1-23" target="tvMCfg9BwbrJC1F9YZ1s-10" edge="1">
                    <mxGeometry relative="1" as="geometry">
                        <mxPoint x="390" y="160" as="sourcePoint"/>
                        <mxPoint x="380" y="100" as="targetPoint"/>
                    </mxGeometry>
                </mxCell>
                <mxCell id="rCRO5mDwt1Ey6ZGiLpo1-3" value="" style="endArrow=none;html=1;rounded=0;entryX=0;entryY=0.5;entryDx=0;entryDy=0;" parent="rCRO5mDwt1Ey6ZGiLpo1-23" target="tvMCfg9BwbrJC1F9YZ1s-11" edge="1">
                    <mxGeometry relative="1" as="geometry">
                        <mxPoint x="400" y="160" as="sourcePoint"/>
                        <mxPoint x="390" y="110" as="targetPoint"/>
                    </mxGeometry>
                </mxCell>
                <mxCell id="rCRO5mDwt1Ey6ZGiLpo1-4" value="" style="endArrow=none;html=1;rounded=0;entryX=0;entryY=0.5;entryDx=0;entryDy=0;exitX=1;exitY=0.5;exitDx=0;exitDy=0;" parent="rCRO5mDwt1Ey6ZGiLpo1-23" source="tvMCfg9BwbrJC1F9YZ1s-1" target="tvMCfg9BwbrJC1F9YZ1s-8" edge="1">
                    <mxGeometry relative="1" as="geometry">
                        <mxPoint x="430" y="190" as="sourcePoint"/>
                        <mxPoint x="400" y="120" as="targetPoint"/>
                    </mxGeometry>
                </mxCell>
                <mxCell id="rCRO5mDwt1Ey6ZGiLpo1-5" value="" style="endArrow=none;html=1;rounded=0;entryX=1;entryY=1;entryDx=0;entryDy=0;" parent="rCRO5mDwt1Ey6ZGiLpo1-23" source="tvMCfg9BwbrJC1F9YZ1s-1" target="tvMCfg9BwbrJC1F9YZ1s-2" edge="1">
                    <mxGeometry relative="1" as="geometry">
                        <mxPoint x="410" y="200" as="sourcePoint"/>
                        <mxPoint x="410" y="130" as="targetPoint"/>
                    </mxGeometry>
                </mxCell>
                <mxCell id="rCRO5mDwt1Ey6ZGiLpo1-6" value="" style="endArrow=none;html=1;rounded=0;entryX=1;entryY=0.5;entryDx=0;entryDy=0;" parent="rCRO5mDwt1Ey6ZGiLpo1-23" target="tvMCfg9BwbrJC1F9YZ1s-12" edge="1">
                    <mxGeometry relative="1" as="geometry">
                        <mxPoint x="320" y="160" as="sourcePoint"/>
                        <mxPoint x="420" y="140" as="targetPoint"/>
                    </mxGeometry>
                </mxCell>
                <mxCell id="rCRO5mDwt1Ey6ZGiLpo1-7" value="" style="endArrow=none;html=1;rounded=0;entryX=0.93;entryY=0.275;entryDx=0;entryDy=0;entryPerimeter=0;exitX=0;exitY=0.5;exitDx=0;exitDy=0;" parent="rCRO5mDwt1Ey6ZGiLpo1-23" source="tvMCfg9BwbrJC1F9YZ1s-1" edge="1">
                    <mxGeometry relative="1" as="geometry">
                        <mxPoint x="430" y="220" as="sourcePoint"/>
                        <mxPoint x="283" y="191" as="targetPoint"/>
                    </mxGeometry>
                </mxCell>
                <mxCell id="rCRO5mDwt1Ey6ZGiLpo1-8" value="First Name" style="ellipse;whiteSpace=wrap;html=1;align=center;" parent="rCRO5mDwt1Ey6ZGiLpo1-23" vertex="1">
                    <mxGeometry x="260" width="100" height="40" as="geometry"/>
                </mxCell>
                <mxCell id="rCRO5mDwt1Ey6ZGiLpo1-9" value="Last Name" style="ellipse;whiteSpace=wrap;html=1;align=center;" parent="rCRO5mDwt1Ey6ZGiLpo1-23" vertex="1">
                    <mxGeometry x="370" width="100" height="40" as="geometry"/>
                </mxCell>
                <mxCell id="rCRO5mDwt1Ey6ZGiLpo1-10" value="House Number" style="ellipse;whiteSpace=wrap;html=1;align=center;" parent="rCRO5mDwt1Ey6ZGiLpo1-23" vertex="1">
                    <mxGeometry y="20" width="100" height="40" as="geometry"/>
                </mxCell>
                <mxCell id="rCRO5mDwt1Ey6ZGiLpo1-11" value="Locality" style="ellipse;whiteSpace=wrap;html=1;align=center;" parent="rCRO5mDwt1Ey6ZGiLpo1-23" vertex="1">
                    <mxGeometry y="70" width="100" height="40" as="geometry"/>
                </mxCell>
                <mxCell id="rCRO5mDwt1Ey6ZGiLpo1-12" value="City" style="ellipse;whiteSpace=wrap;html=1;align=center;" parent="rCRO5mDwt1Ey6ZGiLpo1-23" vertex="1">
                    <mxGeometry y="120" width="100" height="40" as="geometry"/>
                </mxCell>
                <mxCell id="rCRO5mDwt1Ey6ZGiLpo1-13" value="State" style="ellipse;whiteSpace=wrap;html=1;align=center;" parent="rCRO5mDwt1Ey6ZGiLpo1-23" vertex="1">
                    <mxGeometry y="170" width="100" height="40" as="geometry"/>
                </mxCell>
                <mxCell id="rCRO5mDwt1Ey6ZGiLpo1-14" value="Pin Code" style="ellipse;whiteSpace=wrap;html=1;align=center;" parent="rCRO5mDwt1Ey6ZGiLpo1-23" vertex="1">
                    <mxGeometry y="220" width="100" height="40" as="geometry"/>
                </mxCell>
                <mxCell id="rCRO5mDwt1Ey6ZGiLpo1-16" value="" style="endArrow=none;html=1;rounded=0;exitX=1;exitY=0.5;exitDx=0;exitDy=0;" parent="rCRO5mDwt1Ey6ZGiLpo1-23" source="rCRO5mDwt1Ey6ZGiLpo1-10" target="tvMCfg9BwbrJC1F9YZ1s-12" edge="1">
                    <mxGeometry relative="1" as="geometry">
                        <mxPoint x="110" y="50" as="sourcePoint"/>
                        <mxPoint x="270" y="50" as="targetPoint"/>
                    </mxGeometry>
                </mxCell>
                <mxCell id="rCRO5mDwt1Ey6ZGiLpo1-17" value="" style="endArrow=none;html=1;rounded=0;exitX=1;exitY=0.5;exitDx=0;exitDy=0;entryX=0;entryY=0;entryDx=0;entryDy=0;" parent="rCRO5mDwt1Ey6ZGiLpo1-23" target="tvMCfg9BwbrJC1F9YZ1s-12" edge="1">
                    <mxGeometry relative="1" as="geometry">
                        <mxPoint x="100" y="88.32999999999998" as="sourcePoint"/>
                        <mxPoint x="200.00277719923588" y="179.999212432633" as="targetPoint"/>
                    </mxGeometry>
                </mxCell>
                <mxCell id="rCRO5mDwt1Ey6ZGiLpo1-18" value="" style="endArrow=none;html=1;rounded=0;exitX=1;exitY=0.5;exitDx=0;exitDy=0;entryX=0;entryY=0.5;entryDx=0;entryDy=0;" parent="rCRO5mDwt1Ey6ZGiLpo1-23" target="tvMCfg9BwbrJC1F9YZ1s-12" edge="1">
                    <mxGeometry relative="1" as="geometry">
                        <mxPoint x="100" y="144.17000000000002" as="sourcePoint"/>
                        <mxPoint x="200.00277719923588" y="235.83921243263302" as="targetPoint"/>
                    </mxGeometry>
                </mxCell>
                <mxCell id="rCRO5mDwt1Ey6ZGiLpo1-19" value="" style="endArrow=none;html=1;rounded=0;exitX=0;exitY=1;exitDx=0;exitDy=0;entryX=1;entryY=0.5;entryDx=0;entryDy=0;" parent="rCRO5mDwt1Ey6ZGiLpo1-23" source="tvMCfg9BwbrJC1F9YZ1s-12" target="rCRO5mDwt1Ey6ZGiLpo1-13" edge="1">
                    <mxGeometry relative="1" as="geometry">
                        <mxPoint x="130" y="70" as="sourcePoint"/>
                        <mxPoint x="230.00277719923588" y="161.669212432633" as="targetPoint"/>
                    </mxGeometry>
                </mxCell>
                <mxCell id="rCRO5mDwt1Ey6ZGiLpo1-20" value="" style="endArrow=none;html=1;rounded=0;exitX=1;exitY=0.5;exitDx=0;exitDy=0;entryX=0.26;entryY=0.95;entryDx=0;entryDy=0;entryPerimeter=0;" parent="rCRO5mDwt1Ey6ZGiLpo1-23" source="rCRO5mDwt1Ey6ZGiLpo1-14" target="tvMCfg9BwbrJC1F9YZ1s-12" edge="1">
                    <mxGeometry relative="1" as="geometry">
                        <mxPoint x="140" y="80" as="sourcePoint"/>
                        <mxPoint x="200" y="160" as="targetPoint"/>
                    </mxGeometry>
                </mxCell>
                <mxCell id="rCRO5mDwt1Ey6ZGiLpo1-21" value="" style="endArrow=none;html=1;rounded=0;exitX=1;exitY=0.5;exitDx=0;exitDy=0;" parent="rCRO5mDwt1Ey6ZGiLpo1-23" edge="1">
                    <mxGeometry relative="1" as="geometry">
                        <mxPoint x="330" y="40" as="sourcePoint"/>
                        <mxPoint x="350" y="50" as="targetPoint"/>
                    </mxGeometry>
                </mxCell>
                <mxCell id="rCRO5mDwt1Ey6ZGiLpo1-22" value="" style="endArrow=none;html=1;rounded=0;exitX=1;exitY=0.5;exitDx=0;exitDy=0;" parent="rCRO5mDwt1Ey6ZGiLpo1-23" target="tvMCfg9BwbrJC1F9YZ1s-9" edge="1">
                    <mxGeometry relative="1" as="geometry">
                        <mxPoint x="400" y="38.329999999999984" as="sourcePoint"/>
                        <mxPoint x="500.0027771992359" y="129.999212432633" as="targetPoint"/>
                    </mxGeometry>
                </mxCell>
                <mxCell id="rCRO5mDwt1Ey6ZGiLpo1-31" value="" style="endArrow=none;html=1;rounded=0;entryX=0;entryY=0.5;entryDx=0;entryDy=0;" parent="rCRO5mDwt1Ey6ZGiLpo1-23" target="rCRO5mDwt1Ey6ZGiLpo1-29" edge="1">
                    <mxGeometry relative="1" as="geometry">
                        <mxPoint x="350" y="220" as="sourcePoint"/>
                        <mxPoint x="350" y="300" as="targetPoint"/>
                        <Array as="points">
                            <mxPoint x="350" y="310"/>
                        </Array>
                    </mxGeometry>
                </mxCell>
                <mxCell id="rCRO5mDwt1Ey6ZGiLpo1-103" value="Phone number" style="ellipse;shape=doubleEllipse;margin=3;whiteSpace=wrap;html=1;align=center;" parent="rCRO5mDwt1Ey6ZGiLpo1-23" vertex="1">
                    <mxGeometry x="190" y="170" width="100" height="40" as="geometry"/>
                </mxCell>
                <mxCell id="rCRO5mDwt1Ey6ZGiLpo1-105" value="" style="group" parent="rCRO5mDwt1Ey6ZGiLpo1-23" vertex="1" connectable="0">
                    <mxGeometry width="560" height="260" as="geometry"/>
                </mxCell>
                <mxCell id="rCRO5mDwt1Ey6ZGiLpo1-106" value="Customer" style="whiteSpace=wrap;html=1;align=center;" parent="rCRO5mDwt1Ey6ZGiLpo1-105" vertex="1">
                    <mxGeometry x="320" y="160" width="110" height="60" as="geometry"/>
                </mxCell>
                <mxCell id="rCRO5mDwt1Ey6ZGiLpo1-107" value="&lt;u&gt;Customer ID&lt;/u&gt;" style="ellipse;whiteSpace=wrap;html=1;align=center;" parent="rCRO5mDwt1Ey6ZGiLpo1-105" vertex="1">
                    <mxGeometry x="200" y="70" width="100" height="40" as="geometry"/>
                </mxCell>
                <mxCell id="rCRO5mDwt1Ey6ZGiLpo1-108" value="Gender" style="ellipse;whiteSpace=wrap;html=1;align=center;" parent="rCRO5mDwt1Ey6ZGiLpo1-105" vertex="1">
                    <mxGeometry x="460" y="170" width="100" height="40" as="geometry"/>
                </mxCell>
                <mxCell id="rCRO5mDwt1Ey6ZGiLpo1-109" value="Name" style="ellipse;whiteSpace=wrap;html=1;align=center;" parent="rCRO5mDwt1Ey6ZGiLpo1-105" vertex="1">
                    <mxGeometry x="320" y="50" width="100" height="40" as="geometry"/>
                </mxCell>
                <mxCell id="rCRO5mDwt1Ey6ZGiLpo1-110" value="Email Address" style="ellipse;whiteSpace=wrap;html=1;align=center;" parent="rCRO5mDwt1Ey6ZGiLpo1-105" vertex="1">
                    <mxGeometry x="440" y="60" width="100" height="40" as="geometry"/>
                </mxCell>
                <mxCell id="rCRO5mDwt1Ey6ZGiLpo1-111" value="Password" style="ellipse;whiteSpace=wrap;html=1;align=center;" parent="rCRO5mDwt1Ey6ZGiLpo1-105" vertex="1">
                    <mxGeometry x="450" y="120" width="100" height="40" as="geometry"/>
                </mxCell>
                <mxCell id="rCRO5mDwt1Ey6ZGiLpo1-112" value="Address" style="ellipse;whiteSpace=wrap;html=1;align=center;" parent="rCRO5mDwt1Ey6ZGiLpo1-105" vertex="1">
                    <mxGeometry x="170" y="130" width="100" height="40" as="geometry"/>
                </mxCell>
                <mxCell id="rCRO5mDwt1Ey6ZGiLpo1-113" value="" style="endArrow=none;html=1;rounded=0;" parent="rCRO5mDwt1Ey6ZGiLpo1-105" source="rCRO5mDwt1Ey6ZGiLpo1-106" edge="1">
                    <mxGeometry relative="1" as="geometry">
                        <mxPoint x="370" as="sourcePoint"/>
                        <mxPoint x="370" y="90" as="targetPoint"/>
                    </mxGeometry>
                </mxCell>
                <mxCell id="rCRO5mDwt1Ey6ZGiLpo1-114" value="" style="endArrow=none;html=1;rounded=0;entryX=0;entryY=1;entryDx=0;entryDy=0;" parent="rCRO5mDwt1Ey6ZGiLpo1-105" target="rCRO5mDwt1Ey6ZGiLpo1-110" edge="1">
                    <mxGeometry relative="1" as="geometry">
                        <mxPoint x="390" y="160" as="sourcePoint"/>
                        <mxPoint x="380" y="100" as="targetPoint"/>
                    </mxGeometry>
                </mxCell>
                <mxCell id="rCRO5mDwt1Ey6ZGiLpo1-115" value="" style="endArrow=none;html=1;rounded=0;entryX=0;entryY=0.5;entryDx=0;entryDy=0;" parent="rCRO5mDwt1Ey6ZGiLpo1-105" target="rCRO5mDwt1Ey6ZGiLpo1-111" edge="1">
                    <mxGeometry relative="1" as="geometry">
                        <mxPoint x="400" y="160" as="sourcePoint"/>
                        <mxPoint x="390" y="110" as="targetPoint"/>
                    </mxGeometry>
                </mxCell>
                <mxCell id="rCRO5mDwt1Ey6ZGiLpo1-116" value="" style="endArrow=none;html=1;rounded=0;entryX=0;entryY=0.5;entryDx=0;entryDy=0;exitX=1;exitY=0.5;exitDx=0;exitDy=0;" parent="rCRO5mDwt1Ey6ZGiLpo1-105" source="rCRO5mDwt1Ey6ZGiLpo1-106" target="rCRO5mDwt1Ey6ZGiLpo1-108" edge="1">
                    <mxGeometry relative="1" as="geometry">
                        <mxPoint x="430" y="190" as="sourcePoint"/>
                        <mxPoint x="400" y="120" as="targetPoint"/>
                    </mxGeometry>
                </mxCell>
                <mxCell id="rCRO5mDwt1Ey6ZGiLpo1-117" value="" style="endArrow=none;html=1;rounded=0;entryX=1;entryY=1;entryDx=0;entryDy=0;" parent="rCRO5mDwt1Ey6ZGiLpo1-105" source="rCRO5mDwt1Ey6ZGiLpo1-106" target="rCRO5mDwt1Ey6ZGiLpo1-107" edge="1">
                    <mxGeometry relative="1" as="geometry">
                        <mxPoint x="410" y="200" as="sourcePoint"/>
                        <mxPoint x="410" y="130" as="targetPoint"/>
                    </mxGeometry>
                </mxCell>
                <mxCell id="rCRO5mDwt1Ey6ZGiLpo1-118" value="" style="endArrow=none;html=1;rounded=0;entryX=1;entryY=0.5;entryDx=0;entryDy=0;" parent="rCRO5mDwt1Ey6ZGiLpo1-105" target="rCRO5mDwt1Ey6ZGiLpo1-112" edge="1">
                    <mxGeometry relative="1" as="geometry">
                        <mxPoint x="320" y="160" as="sourcePoint"/>
                        <mxPoint x="420" y="140" as="targetPoint"/>
                    </mxGeometry>
                </mxCell>
                <mxCell id="rCRO5mDwt1Ey6ZGiLpo1-119" value="" style="endArrow=none;html=1;rounded=0;entryX=0.93;entryY=0.275;entryDx=0;entryDy=0;entryPerimeter=0;exitX=0;exitY=0.5;exitDx=0;exitDy=0;" parent="rCRO5mDwt1Ey6ZGiLpo1-105" source="rCRO5mDwt1Ey6ZGiLpo1-106" edge="1">
                    <mxGeometry relative="1" as="geometry">
                        <mxPoint x="430" y="220" as="sourcePoint"/>
                        <mxPoint x="283" y="191" as="targetPoint"/>
                    </mxGeometry>
                </mxCell>
                <mxCell id="rCRO5mDwt1Ey6ZGiLpo1-120" value="First Name" style="ellipse;whiteSpace=wrap;html=1;align=center;" parent="rCRO5mDwt1Ey6ZGiLpo1-105" vertex="1">
                    <mxGeometry x="260" width="100" height="40" as="geometry"/>
                </mxCell>
                <mxCell id="rCRO5mDwt1Ey6ZGiLpo1-121" value="Last Name" style="ellipse;whiteSpace=wrap;html=1;align=center;" parent="rCRO5mDwt1Ey6ZGiLpo1-105" vertex="1">
                    <mxGeometry x="370" width="100" height="40" as="geometry"/>
                </mxCell>
                <mxCell id="rCRO5mDwt1Ey6ZGiLpo1-122" value="House Number" style="ellipse;whiteSpace=wrap;html=1;align=center;" parent="rCRO5mDwt1Ey6ZGiLpo1-105" vertex="1">
                    <mxGeometry y="20" width="100" height="40" as="geometry"/>
                </mxCell>
                <mxCell id="rCRO5mDwt1Ey6ZGiLpo1-123" value="Locality" style="ellipse;whiteSpace=wrap;html=1;align=center;" parent="rCRO5mDwt1Ey6ZGiLpo1-105" vertex="1">
                    <mxGeometry y="70" width="100" height="40" as="geometry"/>
                </mxCell>
                <mxCell id="rCRO5mDwt1Ey6ZGiLpo1-124" value="City" style="ellipse;whiteSpace=wrap;html=1;align=center;" parent="rCRO5mDwt1Ey6ZGiLpo1-105" vertex="1">
                    <mxGeometry y="120" width="100" height="40" as="geometry"/>
                </mxCell>
                <mxCell id="rCRO5mDwt1Ey6ZGiLpo1-125" value="State" style="ellipse;whiteSpace=wrap;html=1;align=center;" parent="rCRO5mDwt1Ey6ZGiLpo1-105" vertex="1">
                    <mxGeometry y="170" width="100" height="40" as="geometry"/>
                </mxCell>
                <mxCell id="rCRO5mDwt1Ey6ZGiLpo1-126" value="Pin Code" style="ellipse;whiteSpace=wrap;html=1;align=center;" parent="rCRO5mDwt1Ey6ZGiLpo1-105" vertex="1">
                    <mxGeometry y="220" width="100" height="40" as="geometry"/>
                </mxCell>
                <mxCell id="rCRO5mDwt1Ey6ZGiLpo1-127" value="" style="endArrow=none;html=1;rounded=0;exitX=1;exitY=0.5;exitDx=0;exitDy=0;" parent="rCRO5mDwt1Ey6ZGiLpo1-105" source="rCRO5mDwt1Ey6ZGiLpo1-122" target="rCRO5mDwt1Ey6ZGiLpo1-112" edge="1">
                    <mxGeometry relative="1" as="geometry">
                        <mxPoint x="110" y="50" as="sourcePoint"/>
                        <mxPoint x="270" y="50" as="targetPoint"/>
                    </mxGeometry>
                </mxCell>
                <mxCell id="rCRO5mDwt1Ey6ZGiLpo1-128" value="" style="endArrow=none;html=1;rounded=0;exitX=1;exitY=0.5;exitDx=0;exitDy=0;entryX=0;entryY=0;entryDx=0;entryDy=0;" parent="rCRO5mDwt1Ey6ZGiLpo1-105" target="rCRO5mDwt1Ey6ZGiLpo1-112" edge="1">
                    <mxGeometry relative="1" as="geometry">
                        <mxPoint x="100" y="88.32999999999998" as="sourcePoint"/>
                        <mxPoint x="200.00277719923588" y="179.999212432633" as="targetPoint"/>
                    </mxGeometry>
                </mxCell>
                <mxCell id="rCRO5mDwt1Ey6ZGiLpo1-129" value="" style="endArrow=none;html=1;rounded=0;exitX=1;exitY=0.5;exitDx=0;exitDy=0;entryX=0;entryY=0.5;entryDx=0;entryDy=0;" parent="rCRO5mDwt1Ey6ZGiLpo1-105" target="rCRO5mDwt1Ey6ZGiLpo1-112" edge="1">
                    <mxGeometry relative="1" as="geometry">
                        <mxPoint x="100" y="144.17000000000002" as="sourcePoint"/>
                        <mxPoint x="200.00277719923588" y="235.83921243263302" as="targetPoint"/>
                    </mxGeometry>
                </mxCell>
                <mxCell id="rCRO5mDwt1Ey6ZGiLpo1-130" value="" style="endArrow=none;html=1;rounded=0;exitX=0;exitY=1;exitDx=0;exitDy=0;entryX=1;entryY=0.5;entryDx=0;entryDy=0;" parent="rCRO5mDwt1Ey6ZGiLpo1-105" source="rCRO5mDwt1Ey6ZGiLpo1-112" target="rCRO5mDwt1Ey6ZGiLpo1-125" edge="1">
                    <mxGeometry relative="1" as="geometry">
                        <mxPoint x="130" y="70" as="sourcePoint"/>
                        <mxPoint x="230.00277719923588" y="161.669212432633" as="targetPoint"/>
                    </mxGeometry>
                </mxCell>
                <mxCell id="rCRO5mDwt1Ey6ZGiLpo1-131" value="" style="endArrow=none;html=1;rounded=0;exitX=1;exitY=0.5;exitDx=0;exitDy=0;entryX=0.26;entryY=0.95;entryDx=0;entryDy=0;entryPerimeter=0;" parent="rCRO5mDwt1Ey6ZGiLpo1-105" source="rCRO5mDwt1Ey6ZGiLpo1-126" target="rCRO5mDwt1Ey6ZGiLpo1-112" edge="1">
                    <mxGeometry relative="1" as="geometry">
                        <mxPoint x="140" y="80" as="sourcePoint"/>
                        <mxPoint x="200" y="160" as="targetPoint"/>
                    </mxGeometry>
                </mxCell>
                <mxCell id="rCRO5mDwt1Ey6ZGiLpo1-132" value="" style="endArrow=none;html=1;rounded=0;exitX=1;exitY=0.5;exitDx=0;exitDy=0;" parent="rCRO5mDwt1Ey6ZGiLpo1-105" edge="1">
                    <mxGeometry relative="1" as="geometry">
                        <mxPoint x="330" y="40" as="sourcePoint"/>
                        <mxPoint x="350" y="50" as="targetPoint"/>
                    </mxGeometry>
                </mxCell>
                <mxCell id="rCRO5mDwt1Ey6ZGiLpo1-133" value="" style="endArrow=none;html=1;rounded=0;exitX=1;exitY=0.5;exitDx=0;exitDy=0;" parent="rCRO5mDwt1Ey6ZGiLpo1-105" target="rCRO5mDwt1Ey6ZGiLpo1-109" edge="1">
                    <mxGeometry relative="1" as="geometry">
                        <mxPoint x="400" y="38.329999999999984" as="sourcePoint"/>
                        <mxPoint x="500.0027771992359" y="129.999212432633" as="targetPoint"/>
                    </mxGeometry>
                </mxCell>
                <mxCell id="rCRO5mDwt1Ey6ZGiLpo1-134" value="" style="endArrow=none;html=1;rounded=0;entryX=0;entryY=0.5;entryDx=0;entryDy=0;" parent="rCRO5mDwt1Ey6ZGiLpo1-105" edge="1">
                    <mxGeometry relative="1" as="geometry">
                        <mxPoint x="350" y="220" as="sourcePoint"/>
                        <mxPoint x="350" y="300" as="targetPoint"/>
                        <Array as="points">
                            <mxPoint x="350" y="310"/>
                        </Array>
                    </mxGeometry>
                </mxCell>
                <mxCell id="rCRO5mDwt1Ey6ZGiLpo1-135" value="Phone number" style="ellipse;shape=doubleEllipse;margin=3;whiteSpace=wrap;html=1;align=center;" parent="rCRO5mDwt1Ey6ZGiLpo1-105" vertex="1">
                    <mxGeometry x="190" y="170" width="100" height="40" as="geometry"/>
                </mxCell>
                <mxCell id="rCRO5mDwt1Ey6ZGiLpo1-136" value="" style="group" parent="rCRO5mDwt1Ey6ZGiLpo1-105" vertex="1" connectable="0">
                    <mxGeometry width="560" height="260" as="geometry"/>
                </mxCell>
                <mxCell id="rCRO5mDwt1Ey6ZGiLpo1-137" value="Customer" style="whiteSpace=wrap;html=1;align=center;" parent="rCRO5mDwt1Ey6ZGiLpo1-136" vertex="1">
                    <mxGeometry x="320" y="160" width="110" height="60" as="geometry"/>
                </mxCell>
                <mxCell id="rCRO5mDwt1Ey6ZGiLpo1-138" value="&lt;u&gt;Customer ID&lt;/u&gt;" style="ellipse;whiteSpace=wrap;html=1;align=center;" parent="rCRO5mDwt1Ey6ZGiLpo1-136" vertex="1">
                    <mxGeometry x="200" y="70" width="100" height="40" as="geometry"/>
                </mxCell>
                <mxCell id="rCRO5mDwt1Ey6ZGiLpo1-139" value="Gender" style="ellipse;whiteSpace=wrap;html=1;align=center;" parent="rCRO5mDwt1Ey6ZGiLpo1-136" vertex="1">
                    <mxGeometry x="460" y="170" width="100" height="40" as="geometry"/>
                </mxCell>
                <mxCell id="rCRO5mDwt1Ey6ZGiLpo1-140" value="Name" style="ellipse;whiteSpace=wrap;html=1;align=center;" parent="rCRO5mDwt1Ey6ZGiLpo1-136" vertex="1">
                    <mxGeometry x="320" y="50" width="100" height="40" as="geometry"/>
                </mxCell>
                <mxCell id="rCRO5mDwt1Ey6ZGiLpo1-141" value="Email Address" style="ellipse;whiteSpace=wrap;html=1;align=center;" parent="rCRO5mDwt1Ey6ZGiLpo1-136" vertex="1">
                    <mxGeometry x="440" y="60" width="100" height="40" as="geometry"/>
                </mxCell>
                <mxCell id="rCRO5mDwt1Ey6ZGiLpo1-142" value="Password" style="ellipse;whiteSpace=wrap;html=1;align=center;" parent="rCRO5mDwt1Ey6ZGiLpo1-136" vertex="1">
                    <mxGeometry x="450" y="120" width="100" height="40" as="geometry"/>
                </mxCell>
                <mxCell id="rCRO5mDwt1Ey6ZGiLpo1-143" value="Address" style="ellipse;whiteSpace=wrap;html=1;align=center;" parent="rCRO5mDwt1Ey6ZGiLpo1-136" vertex="1">
                    <mxGeometry x="170" y="130" width="100" height="40" as="geometry"/>
                </mxCell>
                <mxCell id="rCRO5mDwt1Ey6ZGiLpo1-144" value="" style="endArrow=none;html=1;rounded=0;" parent="rCRO5mDwt1Ey6ZGiLpo1-136" source="rCRO5mDwt1Ey6ZGiLpo1-137" edge="1">
                    <mxGeometry relative="1" as="geometry">
                        <mxPoint x="370" as="sourcePoint"/>
                        <mxPoint x="370" y="90" as="targetPoint"/>
                    </mxGeometry>
                </mxCell>
                <mxCell id="rCRO5mDwt1Ey6ZGiLpo1-145" value="" style="endArrow=none;html=1;rounded=0;entryX=0;entryY=1;entryDx=0;entryDy=0;" parent="rCRO5mDwt1Ey6ZGiLpo1-136" target="rCRO5mDwt1Ey6ZGiLpo1-141" edge="1">
                    <mxGeometry relative="1" as="geometry">
                        <mxPoint x="390" y="160" as="sourcePoint"/>
                        <mxPoint x="380" y="100" as="targetPoint"/>
                    </mxGeometry>
                </mxCell>
                <mxCell id="rCRO5mDwt1Ey6ZGiLpo1-146" value="" style="endArrow=none;html=1;rounded=0;entryX=0;entryY=0.5;entryDx=0;entryDy=0;" parent="rCRO5mDwt1Ey6ZGiLpo1-136" target="rCRO5mDwt1Ey6ZGiLpo1-142" edge="1">
                    <mxGeometry relative="1" as="geometry">
                        <mxPoint x="400" y="160" as="sourcePoint"/>
                        <mxPoint x="390" y="110" as="targetPoint"/>
                    </mxGeometry>
                </mxCell>
                <mxCell id="rCRO5mDwt1Ey6ZGiLpo1-147" value="" style="endArrow=none;html=1;rounded=0;entryX=0;entryY=0.5;entryDx=0;entryDy=0;exitX=1;exitY=0.5;exitDx=0;exitDy=0;" parent="rCRO5mDwt1Ey6ZGiLpo1-136" source="rCRO5mDwt1Ey6ZGiLpo1-137" target="rCRO5mDwt1Ey6ZGiLpo1-139" edge="1">
                    <mxGeometry relative="1" as="geometry">
                        <mxPoint x="430" y="190" as="sourcePoint"/>
                        <mxPoint x="400" y="120" as="targetPoint"/>
                    </mxGeometry>
                </mxCell>
                <mxCell id="rCRO5mDwt1Ey6ZGiLpo1-148" value="" style="endArrow=none;html=1;rounded=0;entryX=1;entryY=1;entryDx=0;entryDy=0;" parent="rCRO5mDwt1Ey6ZGiLpo1-136" source="rCRO5mDwt1Ey6ZGiLpo1-137" target="rCRO5mDwt1Ey6ZGiLpo1-138" edge="1">
                    <mxGeometry relative="1" as="geometry">
                        <mxPoint x="410" y="200" as="sourcePoint"/>
                        <mxPoint x="410" y="130" as="targetPoint"/>
                    </mxGeometry>
                </mxCell>
                <mxCell id="rCRO5mDwt1Ey6ZGiLpo1-149" value="" style="endArrow=none;html=1;rounded=0;entryX=1;entryY=0.5;entryDx=0;entryDy=0;" parent="rCRO5mDwt1Ey6ZGiLpo1-136" target="rCRO5mDwt1Ey6ZGiLpo1-143" edge="1">
                    <mxGeometry relative="1" as="geometry">
                        <mxPoint x="320" y="160" as="sourcePoint"/>
                        <mxPoint x="420" y="140" as="targetPoint"/>
                    </mxGeometry>
                </mxCell>
                <mxCell id="rCRO5mDwt1Ey6ZGiLpo1-150" value="" style="endArrow=none;html=1;rounded=0;entryX=0.93;entryY=0.275;entryDx=0;entryDy=0;entryPerimeter=0;exitX=0;exitY=0.5;exitDx=0;exitDy=0;" parent="rCRO5mDwt1Ey6ZGiLpo1-136" source="rCRO5mDwt1Ey6ZGiLpo1-137" edge="1">
                    <mxGeometry relative="1" as="geometry">
                        <mxPoint x="430" y="220" as="sourcePoint"/>
                        <mxPoint x="283" y="191" as="targetPoint"/>
                    </mxGeometry>
                </mxCell>
                <mxCell id="rCRO5mDwt1Ey6ZGiLpo1-151" value="First Name" style="ellipse;whiteSpace=wrap;html=1;align=center;" parent="rCRO5mDwt1Ey6ZGiLpo1-136" vertex="1">
                    <mxGeometry x="260" width="100" height="40" as="geometry"/>
                </mxCell>
                <mxCell id="rCRO5mDwt1Ey6ZGiLpo1-152" value="Last Name" style="ellipse;whiteSpace=wrap;html=1;align=center;" parent="rCRO5mDwt1Ey6ZGiLpo1-136" vertex="1">
                    <mxGeometry x="370" width="100" height="40" as="geometry"/>
                </mxCell>
                <mxCell id="rCRO5mDwt1Ey6ZGiLpo1-153" value="House Number" style="ellipse;whiteSpace=wrap;html=1;align=center;" parent="rCRO5mDwt1Ey6ZGiLpo1-136" vertex="1">
                    <mxGeometry y="20" width="100" height="40" as="geometry"/>
                </mxCell>
                <mxCell id="rCRO5mDwt1Ey6ZGiLpo1-154" value="Locality" style="ellipse;whiteSpace=wrap;html=1;align=center;" parent="rCRO5mDwt1Ey6ZGiLpo1-136" vertex="1">
                    <mxGeometry y="70" width="100" height="40" as="geometry"/>
                </mxCell>
                <mxCell id="rCRO5mDwt1Ey6ZGiLpo1-155" value="City" style="ellipse;whiteSpace=wrap;html=1;align=center;" parent="rCRO5mDwt1Ey6ZGiLpo1-136" vertex="1">
                    <mxGeometry y="120" width="100" height="40" as="geometry"/>
                </mxCell>
                <mxCell id="rCRO5mDwt1Ey6ZGiLpo1-156" value="State" style="ellipse;whiteSpace=wrap;html=1;align=center;" parent="rCRO5mDwt1Ey6ZGiLpo1-136" vertex="1">
                    <mxGeometry y="170" width="100" height="40" as="geometry"/>
                </mxCell>
                <mxCell id="rCRO5mDwt1Ey6ZGiLpo1-157" value="Pin Code" style="ellipse;whiteSpace=wrap;html=1;align=center;" parent="rCRO5mDwt1Ey6ZGiLpo1-136" vertex="1">
                    <mxGeometry y="220" width="100" height="40" as="geometry"/>
                </mxCell>
                <mxCell id="rCRO5mDwt1Ey6ZGiLpo1-158" value="" style="endArrow=none;html=1;rounded=0;exitX=1;exitY=0.5;exitDx=0;exitDy=0;" parent="rCRO5mDwt1Ey6ZGiLpo1-136" source="rCRO5mDwt1Ey6ZGiLpo1-153" target="rCRO5mDwt1Ey6ZGiLpo1-143" edge="1">
                    <mxGeometry relative="1" as="geometry">
                        <mxPoint x="110" y="50" as="sourcePoint"/>
                        <mxPoint x="270" y="50" as="targetPoint"/>
                    </mxGeometry>
                </mxCell>
                <mxCell id="rCRO5mDwt1Ey6ZGiLpo1-159" value="" style="endArrow=none;html=1;rounded=0;exitX=1;exitY=0.5;exitDx=0;exitDy=0;entryX=0;entryY=0;entryDx=0;entryDy=0;" parent="rCRO5mDwt1Ey6ZGiLpo1-136" target="rCRO5mDwt1Ey6ZGiLpo1-143" edge="1">
                    <mxGeometry relative="1" as="geometry">
                        <mxPoint x="100" y="88.32999999999998" as="sourcePoint"/>
                        <mxPoint x="200.00277719923588" y="179.999212432633" as="targetPoint"/>
                    </mxGeometry>
                </mxCell>
                <mxCell id="rCRO5mDwt1Ey6ZGiLpo1-160" value="" style="endArrow=none;html=1;rounded=0;exitX=1;exitY=0.5;exitDx=0;exitDy=0;entryX=0;entryY=0.5;entryDx=0;entryDy=0;" parent="rCRO5mDwt1Ey6ZGiLpo1-136" target="rCRO5mDwt1Ey6ZGiLpo1-143" edge="1">
                    <mxGeometry relative="1" as="geometry">
                        <mxPoint x="100" y="144.17000000000002" as="sourcePoint"/>
                        <mxPoint x="200.00277719923588" y="235.83921243263302" as="targetPoint"/>
                    </mxGeometry>
                </mxCell>
                <mxCell id="rCRO5mDwt1Ey6ZGiLpo1-161" value="" style="endArrow=none;html=1;rounded=0;exitX=0;exitY=1;exitDx=0;exitDy=0;entryX=1;entryY=0.5;entryDx=0;entryDy=0;" parent="rCRO5mDwt1Ey6ZGiLpo1-136" source="rCRO5mDwt1Ey6ZGiLpo1-143" target="rCRO5mDwt1Ey6ZGiLpo1-156" edge="1">
                    <mxGeometry relative="1" as="geometry">
                        <mxPoint x="130" y="70" as="sourcePoint"/>
                        <mxPoint x="230.00277719923588" y="161.669212432633" as="targetPoint"/>
                    </mxGeometry>
                </mxCell>
                <mxCell id="rCRO5mDwt1Ey6ZGiLpo1-162" value="" style="endArrow=none;html=1;rounded=0;exitX=1;exitY=0.5;exitDx=0;exitDy=0;entryX=0.26;entryY=0.95;entryDx=0;entryDy=0;entryPerimeter=0;" parent="rCRO5mDwt1Ey6ZGiLpo1-136" source="rCRO5mDwt1Ey6ZGiLpo1-157" target="rCRO5mDwt1Ey6ZGiLpo1-143" edge="1">
                    <mxGeometry relative="1" as="geometry">
                        <mxPoint x="140" y="80" as="sourcePoint"/>
                        <mxPoint x="200" y="160" as="targetPoint"/>
                    </mxGeometry>
                </mxCell>
                <mxCell id="rCRO5mDwt1Ey6ZGiLpo1-163" value="" style="endArrow=none;html=1;rounded=0;exitX=1;exitY=0.5;exitDx=0;exitDy=0;" parent="rCRO5mDwt1Ey6ZGiLpo1-136" edge="1">
                    <mxGeometry relative="1" as="geometry">
                        <mxPoint x="330" y="40" as="sourcePoint"/>
                        <mxPoint x="350" y="50" as="targetPoint"/>
                    </mxGeometry>
                </mxCell>
                <mxCell id="rCRO5mDwt1Ey6ZGiLpo1-164" value="" style="endArrow=none;html=1;rounded=0;exitX=1;exitY=0.5;exitDx=0;exitDy=0;" parent="rCRO5mDwt1Ey6ZGiLpo1-136" target="rCRO5mDwt1Ey6ZGiLpo1-140" edge="1">
                    <mxGeometry relative="1" as="geometry">
                        <mxPoint x="400" y="38.329999999999984" as="sourcePoint"/>
                        <mxPoint x="500.0027771992359" y="129.999212432633" as="targetPoint"/>
                    </mxGeometry>
                </mxCell>
                <mxCell id="rCRO5mDwt1Ey6ZGiLpo1-165" value="" style="endArrow=none;html=1;rounded=0;entryX=0;entryY=0.5;entryDx=0;entryDy=0;" parent="rCRO5mDwt1Ey6ZGiLpo1-136" edge="1">
                    <mxGeometry relative="1" as="geometry">
                        <mxPoint x="350" y="220" as="sourcePoint"/>
                        <mxPoint x="350" y="300" as="targetPoint"/>
                        <Array as="points">
                            <mxPoint x="350" y="310"/>
                        </Array>
                    </mxGeometry>
                </mxCell>
                <mxCell id="rCRO5mDwt1Ey6ZGiLpo1-166" value="Phone number" style="ellipse;shape=doubleEllipse;margin=3;whiteSpace=wrap;html=1;align=center;" parent="rCRO5mDwt1Ey6ZGiLpo1-136" vertex="1">
                    <mxGeometry x="190" y="170" width="100" height="40" as="geometry"/>
                </mxCell>
                <mxCell id="rCRO5mDwt1Ey6ZGiLpo1-24" value="Shopping Cart" style="shape=ext;margin=3;double=1;whiteSpace=wrap;html=1;align=center;" parent="1" vertex="1">
                    <mxGeometry x="590" y="310" width="100" height="40" as="geometry"/>
                </mxCell>
                <mxCell id="rCRO5mDwt1Ey6ZGiLpo1-29" value="Has" style="shape=rhombus;double=1;perimeter=rhombusPerimeter;whiteSpace=wrap;html=1;align=center;rotation=0;" parent="1" vertex="1">
                    <mxGeometry x="380" y="300" width="120" height="60" as="geometry"/>
                </mxCell>
                <mxCell id="rCRO5mDwt1Ey6ZGiLpo1-33" value="" style="endArrow=none;html=1;rounded=0;shape=link;" parent="1" source="rCRO5mDwt1Ey6ZGiLpo1-29" edge="1">
                    <mxGeometry relative="1" as="geometry">
                        <mxPoint x="500" y="330" as="sourcePoint"/>
                        <mxPoint x="590" y="330" as="targetPoint"/>
                    </mxGeometry>
                </mxCell>
                <mxCell id="rCRO5mDwt1Ey6ZGiLpo1-37" value="Contains" style="shape=rhombus;perimeter=rhombusPerimeter;whiteSpace=wrap;html=1;align=center;" parent="1" vertex="1">
                    <mxGeometry x="750" y="300" width="120" height="60" as="geometry"/>
                </mxCell>
                <mxCell id="rCRO5mDwt1Ey6ZGiLpo1-39" value="" style="endArrow=none;html=1;rounded=0;" parent="1" edge="1">
                    <mxGeometry relative="1" as="geometry">
                        <mxPoint x="690" y="330" as="sourcePoint"/>
                        <mxPoint x="750" y="330" as="targetPoint"/>
                    </mxGeometry>
                </mxCell>
                <mxCell id="rCRO5mDwt1Ey6ZGiLpo1-40" value="" style="group" parent="1" vertex="1" connectable="0">
                    <mxGeometry x="430" y="440" width="560" height="260" as="geometry"/>
                </mxCell>
                <mxCell id="rCRO5mDwt1Ey6ZGiLpo1-41" value="Product" style="whiteSpace=wrap;html=1;align=center;" parent="rCRO5mDwt1Ey6ZGiLpo1-40" vertex="1">
                    <mxGeometry x="320" y="160" width="110" height="60" as="geometry"/>
                </mxCell>
                <mxCell id="rCRO5mDwt1Ey6ZGiLpo1-42" value="&lt;u&gt;Product ID&lt;/u&gt;" style="ellipse;whiteSpace=wrap;html=1;align=center;" parent="rCRO5mDwt1Ey6ZGiLpo1-40" vertex="1">
                    <mxGeometry x="200" y="70" width="100" height="40" as="geometry"/>
                </mxCell>
                <mxCell id="rCRO5mDwt1Ey6ZGiLpo1-44" value="Discount Percentage" style="ellipse;whiteSpace=wrap;html=1;align=center;" parent="rCRO5mDwt1Ey6ZGiLpo1-40" vertex="1">
                    <mxGeometry x="460" y="170" width="100" height="40" as="geometry"/>
                </mxCell>
                <mxCell id="rCRO5mDwt1Ey6ZGiLpo1-46" value="Price" style="ellipse;whiteSpace=wrap;html=1;align=center;" parent="rCRO5mDwt1Ey6ZGiLpo1-40" vertex="1">
                    <mxGeometry x="440" y="60" width="100" height="40" as="geometry"/>
                </mxCell>
                <mxCell id="rCRO5mDwt1Ey6ZGiLpo1-47" value="Category" style="ellipse;whiteSpace=wrap;html=1;align=center;" parent="rCRO5mDwt1Ey6ZGiLpo1-40" vertex="1">
                    <mxGeometry x="450" y="120" width="100" height="40" as="geometry"/>
                </mxCell>
                <mxCell id="rCRO5mDwt1Ey6ZGiLpo1-48" value="Specifications" style="ellipse;whiteSpace=wrap;html=1;align=center;" parent="rCRO5mDwt1Ey6ZGiLpo1-40" vertex="1">
                    <mxGeometry x="170" y="130" width="100" height="40" as="geometry"/>
                </mxCell>
                <mxCell id="rCRO5mDwt1Ey6ZGiLpo1-50" value="" style="endArrow=none;html=1;rounded=0;entryX=0;entryY=1;entryDx=0;entryDy=0;" parent="rCRO5mDwt1Ey6ZGiLpo1-40" target="rCRO5mDwt1Ey6ZGiLpo1-46" edge="1">
                    <mxGeometry relative="1" as="geometry">
                        <mxPoint x="390" y="160" as="sourcePoint"/>
                        <mxPoint x="380" y="100" as="targetPoint"/>
                    </mxGeometry>
                </mxCell>
                <mxCell id="rCRO5mDwt1Ey6ZGiLpo1-51" value="" style="endArrow=none;html=1;rounded=0;entryX=0;entryY=0.5;entryDx=0;entryDy=0;" parent="rCRO5mDwt1Ey6ZGiLpo1-40" target="rCRO5mDwt1Ey6ZGiLpo1-47" edge="1">
                    <mxGeometry relative="1" as="geometry">
                        <mxPoint x="400" y="160" as="sourcePoint"/>
                        <mxPoint x="390" y="110" as="targetPoint"/>
                    </mxGeometry>
                </mxCell>
                <mxCell id="rCRO5mDwt1Ey6ZGiLpo1-52" value="" style="endArrow=none;html=1;rounded=0;entryX=0;entryY=0.5;entryDx=0;entryDy=0;exitX=1;exitY=0.5;exitDx=0;exitDy=0;" parent="rCRO5mDwt1Ey6ZGiLpo1-40" source="rCRO5mDwt1Ey6ZGiLpo1-41" target="rCRO5mDwt1Ey6ZGiLpo1-44" edge="1">
                    <mxGeometry relative="1" as="geometry">
                        <mxPoint x="430" y="190" as="sourcePoint"/>
                        <mxPoint x="400" y="120" as="targetPoint"/>
                    </mxGeometry>
                </mxCell>
                <mxCell id="rCRO5mDwt1Ey6ZGiLpo1-53" value="" style="endArrow=none;html=1;rounded=0;entryX=1;entryY=1;entryDx=0;entryDy=0;" parent="rCRO5mDwt1Ey6ZGiLpo1-40" source="rCRO5mDwt1Ey6ZGiLpo1-41" target="rCRO5mDwt1Ey6ZGiLpo1-42" edge="1">
                    <mxGeometry relative="1" as="geometry">
                        <mxPoint x="410" y="200" as="sourcePoint"/>
                        <mxPoint x="410" y="130" as="targetPoint"/>
                    </mxGeometry>
                </mxCell>
                <mxCell id="rCRO5mDwt1Ey6ZGiLpo1-54" value="" style="endArrow=none;html=1;rounded=0;entryX=1;entryY=0.5;entryDx=0;entryDy=0;" parent="rCRO5mDwt1Ey6ZGiLpo1-40" target="rCRO5mDwt1Ey6ZGiLpo1-48" edge="1">
                    <mxGeometry relative="1" as="geometry">
                        <mxPoint x="320" y="160" as="sourcePoint"/>
                        <mxPoint x="420" y="140" as="targetPoint"/>
                    </mxGeometry>
                </mxCell>
                <mxCell id="rCRO5mDwt1Ey6ZGiLpo1-55" value="" style="endArrow=none;html=1;rounded=0;entryX=0.93;entryY=0.275;entryDx=0;entryDy=0;entryPerimeter=0;exitX=0;exitY=0.5;exitDx=0;exitDy=0;" parent="rCRO5mDwt1Ey6ZGiLpo1-40" source="rCRO5mDwt1Ey6ZGiLpo1-41" edge="1">
                    <mxGeometry relative="1" as="geometry">
                        <mxPoint x="430" y="220" as="sourcePoint"/>
                        <mxPoint x="283" y="191" as="targetPoint"/>
                    </mxGeometry>
                </mxCell>
                <mxCell id="rCRO5mDwt1Ey6ZGiLpo1-57" value="Photo" style="ellipse;shape=doubleEllipse;margin=3;whiteSpace=wrap;html=1;align=center;fontFamily=Helvetica;fontSize=12;fontColor=rgb(0, 0, 0);strokeColor=rgb(0, 0, 0);fillColor=rgb(255, 255, 255);" parent="rCRO5mDwt1Ey6ZGiLpo1-40" vertex="1">
                    <mxGeometry x="360" y="30" width="100" height="40" as="geometry"/>
                </mxCell>
                <mxCell id="rCRO5mDwt1Ey6ZGiLpo1-58" value="Expiry date" style="ellipse;whiteSpace=wrap;html=1;align=center;" parent="rCRO5mDwt1Ey6ZGiLpo1-40" vertex="1">
                    <mxGeometry y="20" width="100" height="40" as="geometry"/>
                </mxCell>
                <mxCell id="rCRO5mDwt1Ey6ZGiLpo1-59" value="Manufacture date" style="ellipse;whiteSpace=wrap;html=1;align=center;" parent="rCRO5mDwt1Ey6ZGiLpo1-40" vertex="1">
                    <mxGeometry y="70" width="100" height="40" as="geometry"/>
                </mxCell>
                <mxCell id="rCRO5mDwt1Ey6ZGiLpo1-60" value="Country of manufacture" style="ellipse;whiteSpace=wrap;html=1;align=center;" parent="rCRO5mDwt1Ey6ZGiLpo1-40" vertex="1">
                    <mxGeometry y="120" width="100" height="40" as="geometry"/>
                </mxCell>
                <mxCell id="rCRO5mDwt1Ey6ZGiLpo1-61" value="Weight" style="ellipse;whiteSpace=wrap;html=1;align=center;" parent="rCRO5mDwt1Ey6ZGiLpo1-40" vertex="1">
                    <mxGeometry y="170" width="100" height="40" as="geometry"/>
                </mxCell>
                <mxCell id="rCRO5mDwt1Ey6ZGiLpo1-62" value="Dimensions" style="ellipse;whiteSpace=wrap;html=1;align=center;" parent="rCRO5mDwt1Ey6ZGiLpo1-40" vertex="1">
                    <mxGeometry y="220" width="100" height="40" as="geometry"/>
                </mxCell>
                <mxCell id="rCRO5mDwt1Ey6ZGiLpo1-63" value="" style="endArrow=none;html=1;rounded=0;exitX=1;exitY=0.5;exitDx=0;exitDy=0;" parent="rCRO5mDwt1Ey6ZGiLpo1-40" source="rCRO5mDwt1Ey6ZGiLpo1-58" target="rCRO5mDwt1Ey6ZGiLpo1-48" edge="1">
                    <mxGeometry relative="1" as="geometry">
                        <mxPoint x="110" y="50" as="sourcePoint"/>
                        <mxPoint x="270" y="50" as="targetPoint"/>
                    </mxGeometry>
                </mxCell>
                <mxCell id="rCRO5mDwt1Ey6ZGiLpo1-64" value="" style="endArrow=none;html=1;rounded=0;exitX=1;exitY=0.5;exitDx=0;exitDy=0;entryX=0;entryY=0;entryDx=0;entryDy=0;" parent="rCRO5mDwt1Ey6ZGiLpo1-40" target="rCRO5mDwt1Ey6ZGiLpo1-48" edge="1">
                    <mxGeometry relative="1" as="geometry">
                        <mxPoint x="100" y="88.32999999999998" as="sourcePoint"/>
                        <mxPoint x="200.00277719923588" y="179.999212432633" as="targetPoint"/>
                    </mxGeometry>
                </mxCell>
                <mxCell id="rCRO5mDwt1Ey6ZGiLpo1-65" value="" style="endArrow=none;html=1;rounded=0;exitX=1;exitY=0.5;exitDx=0;exitDy=0;entryX=0;entryY=0.5;entryDx=0;entryDy=0;" parent="rCRO5mDwt1Ey6ZGiLpo1-40" target="rCRO5mDwt1Ey6ZGiLpo1-48" edge="1">
                    <mxGeometry relative="1" as="geometry">
                        <mxPoint x="100" y="144.17000000000002" as="sourcePoint"/>
                        <mxPoint x="200.00277719923588" y="235.83921243263302" as="targetPoint"/>
                    </mxGeometry>
                </mxCell>
                <mxCell id="rCRO5mDwt1Ey6ZGiLpo1-66" value="" style="endArrow=none;html=1;rounded=0;exitX=0;exitY=1;exitDx=0;exitDy=0;entryX=1;entryY=0.5;entryDx=0;entryDy=0;" parent="rCRO5mDwt1Ey6ZGiLpo1-40" source="rCRO5mDwt1Ey6ZGiLpo1-48" target="rCRO5mDwt1Ey6ZGiLpo1-61" edge="1">
                    <mxGeometry relative="1" as="geometry">
                        <mxPoint x="130" y="70" as="sourcePoint"/>
                        <mxPoint x="230.00277719923588" y="161.669212432633" as="targetPoint"/>
                    </mxGeometry>
                </mxCell>
                <mxCell id="rCRO5mDwt1Ey6ZGiLpo1-67" value="" style="endArrow=none;html=1;rounded=0;exitX=1;exitY=0.5;exitDx=0;exitDy=0;entryX=0.26;entryY=0.95;entryDx=0;entryDy=0;entryPerimeter=0;" parent="rCRO5mDwt1Ey6ZGiLpo1-40" source="rCRO5mDwt1Ey6ZGiLpo1-62" target="rCRO5mDwt1Ey6ZGiLpo1-48" edge="1">
                    <mxGeometry relative="1" as="geometry">
                        <mxPoint x="140" y="80" as="sourcePoint"/>
                        <mxPoint x="200" y="160" as="targetPoint"/>
                    </mxGeometry>
                </mxCell>
                <mxCell id="rCRO5mDwt1Ey6ZGiLpo1-68" value="" style="endArrow=none;html=1;rounded=0;exitX=0.5;exitY=1;exitDx=0;exitDy=0;entryX=0.25;entryY=0;entryDx=0;entryDy=0;" parent="rCRO5mDwt1Ey6ZGiLpo1-40" source="rCRO5mDwt1Ey6ZGiLpo1-104" target="rCRO5mDwt1Ey6ZGiLpo1-41" edge="1">
                    <mxGeometry relative="1" as="geometry">
                        <mxPoint x="330" y="40" as="sourcePoint"/>
                        <mxPoint x="350" y="50" as="targetPoint"/>
                    </mxGeometry>
                </mxCell>
                <mxCell id="rCRO5mDwt1Ey6ZGiLpo1-69" value="" style="endArrow=none;html=1;rounded=0;entryX=0.5;entryY=0;entryDx=0;entryDy=0;" parent="rCRO5mDwt1Ey6ZGiLpo1-40" target="rCRO5mDwt1Ey6ZGiLpo1-41" edge="1">
                    <mxGeometry relative="1" as="geometry">
                        <mxPoint x="400" y="70" as="sourcePoint"/>
                        <mxPoint x="388.04970512787645" y="51.34863803452754" as="targetPoint"/>
                    </mxGeometry>
                </mxCell>
                <mxCell id="rCRO5mDwt1Ey6ZGiLpo1-71" value="GST" style="ellipse;whiteSpace=wrap;html=1;align=center;dashed=1;" parent="rCRO5mDwt1Ey6ZGiLpo1-40" vertex="1">
                    <mxGeometry x="190" y="180" width="100" height="40" as="geometry"/>
                </mxCell>
                <mxCell id="rCRO5mDwt1Ey6ZGiLpo1-104" value="Rating" style="ellipse;shape=doubleEllipse;margin=3;whiteSpace=wrap;html=1;align=center;fontFamily=Helvetica;fontSize=12;fontColor=rgb(0, 0, 0);strokeColor=rgb(0, 0, 0);fillColor=rgb(255, 255, 255);" parent="rCRO5mDwt1Ey6ZGiLpo1-40" vertex="1">
                    <mxGeometry x="250" y="30" width="100" height="40" as="geometry"/>
                </mxCell>
                <mxCell id="rCRO5mDwt1Ey6ZGiLpo1-197" value="" style="group" parent="1" vertex="1" connectable="0">
                    <mxGeometry x="290" y="800" width="560" height="260" as="geometry"/>
                </mxCell>
                <mxCell id="rCRO5mDwt1Ey6ZGiLpo1-198" value="Order" style="whiteSpace=wrap;html=1;align=center;" parent="rCRO5mDwt1Ey6ZGiLpo1-197" vertex="1">
                    <mxGeometry x="320" y="160" width="110" height="60" as="geometry"/>
                </mxCell>
                <mxCell id="rCRO5mDwt1Ey6ZGiLpo1-199" value="&lt;u&gt;Order ID&lt;/u&gt;" style="ellipse;whiteSpace=wrap;html=1;align=center;" parent="rCRO5mDwt1Ey6ZGiLpo1-197" vertex="1">
                    <mxGeometry x="200" y="70" width="100" height="40" as="geometry"/>
                </mxCell>
                <mxCell id="rCRO5mDwt1Ey6ZGiLpo1-200" value="Discount Percentage" style="ellipse;whiteSpace=wrap;html=1;align=center;" parent="rCRO5mDwt1Ey6ZGiLpo1-197" vertex="1">
                    <mxGeometry x="460" y="170" width="100" height="40" as="geometry"/>
                </mxCell>
                <mxCell id="rCRO5mDwt1Ey6ZGiLpo1-201" value="Price" style="ellipse;whiteSpace=wrap;html=1;align=center;" parent="rCRO5mDwt1Ey6ZGiLpo1-197" vertex="1">
                    <mxGeometry x="440" y="60" width="100" height="40" as="geometry"/>
                </mxCell>
                <mxCell id="rCRO5mDwt1Ey6ZGiLpo1-202" value="Category" style="ellipse;whiteSpace=wrap;html=1;align=center;" parent="rCRO5mDwt1Ey6ZGiLpo1-197" vertex="1">
                    <mxGeometry x="450" y="120" width="100" height="40" as="geometry"/>
                </mxCell>
                <mxCell id="rCRO5mDwt1Ey6ZGiLpo1-203" value="Billing Details" style="ellipse;whiteSpace=wrap;html=1;align=center;" parent="rCRO5mDwt1Ey6ZGiLpo1-197" vertex="1">
                    <mxGeometry x="170" y="130" width="100" height="40" as="geometry"/>
                </mxCell>
                <mxCell id="rCRO5mDwt1Ey6ZGiLpo1-204" value="" style="endArrow=none;html=1;rounded=0;entryX=0;entryY=1;entryDx=0;entryDy=0;" parent="rCRO5mDwt1Ey6ZGiLpo1-197" target="rCRO5mDwt1Ey6ZGiLpo1-201" edge="1">
                    <mxGeometry relative="1" as="geometry">
                        <mxPoint x="390" y="160" as="sourcePoint"/>
                        <mxPoint x="380" y="100" as="targetPoint"/>
                    </mxGeometry>
                </mxCell>
                <mxCell id="rCRO5mDwt1Ey6ZGiLpo1-205" value="" style="endArrow=none;html=1;rounded=0;entryX=0;entryY=0.5;entryDx=0;entryDy=0;" parent="rCRO5mDwt1Ey6ZGiLpo1-197" target="rCRO5mDwt1Ey6ZGiLpo1-202" edge="1">
                    <mxGeometry relative="1" as="geometry">
                        <mxPoint x="400" y="160" as="sourcePoint"/>
                        <mxPoint x="390" y="110" as="targetPoint"/>
                    </mxGeometry>
                </mxCell>
                <mxCell id="rCRO5mDwt1Ey6ZGiLpo1-206" value="" style="endArrow=none;html=1;rounded=0;entryX=0;entryY=0.5;entryDx=0;entryDy=0;exitX=1;exitY=0.5;exitDx=0;exitDy=0;" parent="rCRO5mDwt1Ey6ZGiLpo1-197" source="rCRO5mDwt1Ey6ZGiLpo1-198" target="rCRO5mDwt1Ey6ZGiLpo1-200" edge="1">
                    <mxGeometry relative="1" as="geometry">
                        <mxPoint x="430" y="190" as="sourcePoint"/>
                        <mxPoint x="400" y="120" as="targetPoint"/>
                    </mxGeometry>
                </mxCell>
                <mxCell id="rCRO5mDwt1Ey6ZGiLpo1-207" value="" style="endArrow=none;html=1;rounded=0;entryX=1;entryY=1;entryDx=0;entryDy=0;" parent="rCRO5mDwt1Ey6ZGiLpo1-197" source="rCRO5mDwt1Ey6ZGiLpo1-198" target="rCRO5mDwt1Ey6ZGiLpo1-199" edge="1">
                    <mxGeometry relative="1" as="geometry">
                        <mxPoint x="410" y="200" as="sourcePoint"/>
                        <mxPoint x="410" y="130" as="targetPoint"/>
                    </mxGeometry>
                </mxCell>
                <mxCell id="rCRO5mDwt1Ey6ZGiLpo1-208" value="" style="endArrow=none;html=1;rounded=0;entryX=1;entryY=0.5;entryDx=0;entryDy=0;" parent="rCRO5mDwt1Ey6ZGiLpo1-197" target="rCRO5mDwt1Ey6ZGiLpo1-203" edge="1">
                    <mxGeometry relative="1" as="geometry">
                        <mxPoint x="320" y="160" as="sourcePoint"/>
                        <mxPoint x="420" y="140" as="targetPoint"/>
                    </mxGeometry>
                </mxCell>
                <mxCell id="rCRO5mDwt1Ey6ZGiLpo1-210" value="Photo" style="ellipse;shape=doubleEllipse;margin=3;whiteSpace=wrap;html=1;align=center;fontFamily=Helvetica;fontSize=12;fontColor=rgb(0, 0, 0);strokeColor=rgb(0, 0, 0);fillColor=rgb(255, 255, 255);" parent="rCRO5mDwt1Ey6ZGiLpo1-197" vertex="1">
                    <mxGeometry x="360" y="30" width="100" height="40" as="geometry"/>
                </mxCell>
                <mxCell id="rCRO5mDwt1Ey6ZGiLpo1-211" value="Billing Name" style="ellipse;whiteSpace=wrap;html=1;align=center;" parent="rCRO5mDwt1Ey6ZGiLpo1-197" vertex="1">
                    <mxGeometry y="20" width="100" height="40" as="geometry"/>
                </mxCell>
                <mxCell id="rCRO5mDwt1Ey6ZGiLpo1-212" value="Billing Address" style="ellipse;whiteSpace=wrap;html=1;align=center;" parent="rCRO5mDwt1Ey6ZGiLpo1-197" vertex="1">
                    <mxGeometry y="70" width="100" height="40" as="geometry"/>
                </mxCell>
                <mxCell id="rCRO5mDwt1Ey6ZGiLpo1-213" value="Billing Phone Number" style="ellipse;whiteSpace=wrap;html=1;align=center;" parent="rCRO5mDwt1Ey6ZGiLpo1-197" vertex="1">
                    <mxGeometry y="120" width="100" height="40" as="geometry"/>
                </mxCell>
                <mxCell id="rCRO5mDwt1Ey6ZGiLpo1-216" value="" style="endArrow=none;html=1;rounded=0;exitX=1;exitY=0.5;exitDx=0;exitDy=0;" parent="rCRO5mDwt1Ey6ZGiLpo1-197" source="rCRO5mDwt1Ey6ZGiLpo1-211" target="rCRO5mDwt1Ey6ZGiLpo1-203" edge="1">
                    <mxGeometry relative="1" as="geometry">
                        <mxPoint x="110" y="50" as="sourcePoint"/>
                        <mxPoint x="270" y="50" as="targetPoint"/>
                    </mxGeometry>
                </mxCell>
                <mxCell id="rCRO5mDwt1Ey6ZGiLpo1-217" value="" style="endArrow=none;html=1;rounded=0;exitX=1;exitY=0.5;exitDx=0;exitDy=0;entryX=0;entryY=0;entryDx=0;entryDy=0;" parent="rCRO5mDwt1Ey6ZGiLpo1-197" target="rCRO5mDwt1Ey6ZGiLpo1-203" edge="1">
                    <mxGeometry relative="1" as="geometry">
                        <mxPoint x="100" y="88.32999999999998" as="sourcePoint"/>
                        <mxPoint x="200.00277719923588" y="179.999212432633" as="targetPoint"/>
                    </mxGeometry>
                </mxCell>
                <mxCell id="rCRO5mDwt1Ey6ZGiLpo1-218" value="" style="endArrow=none;html=1;rounded=0;exitX=1;exitY=0.5;exitDx=0;exitDy=0;entryX=0;entryY=0.5;entryDx=0;entryDy=0;" parent="rCRO5mDwt1Ey6ZGiLpo1-197" target="rCRO5mDwt1Ey6ZGiLpo1-203" edge="1">
                    <mxGeometry relative="1" as="geometry">
                        <mxPoint x="100" y="144.17000000000002" as="sourcePoint"/>
                        <mxPoint x="200.00277719923588" y="235.83921243263302" as="targetPoint"/>
                    </mxGeometry>
                </mxCell>
                <mxCell id="rCRO5mDwt1Ey6ZGiLpo1-221" value="" style="endArrow=none;html=1;rounded=0;exitX=0.5;exitY=1;exitDx=0;exitDy=0;entryX=0.25;entryY=0;entryDx=0;entryDy=0;" parent="rCRO5mDwt1Ey6ZGiLpo1-197" source="rCRO5mDwt1Ey6ZGiLpo1-224" target="rCRO5mDwt1Ey6ZGiLpo1-198" edge="1">
                    <mxGeometry relative="1" as="geometry">
                        <mxPoint x="330" y="40" as="sourcePoint"/>
                        <mxPoint x="350" y="50" as="targetPoint"/>
                    </mxGeometry>
                </mxCell>
                <mxCell id="rCRO5mDwt1Ey6ZGiLpo1-222" value="" style="endArrow=none;html=1;rounded=0;entryX=0.5;entryY=0;entryDx=0;entryDy=0;" parent="rCRO5mDwt1Ey6ZGiLpo1-197" target="rCRO5mDwt1Ey6ZGiLpo1-198" edge="1">
                    <mxGeometry relative="1" as="geometry">
                        <mxPoint x="400" y="70" as="sourcePoint"/>
                        <mxPoint x="388.04970512787645" y="51.34863803452754" as="targetPoint"/>
                    </mxGeometry>
                </mxCell>
                <mxCell id="rCRO5mDwt1Ey6ZGiLpo1-224" value="Rating" style="ellipse;shape=doubleEllipse;margin=3;whiteSpace=wrap;html=1;align=center;fontFamily=Helvetica;fontSize=12;fontColor=rgb(0, 0, 0);strokeColor=rgb(0, 0, 0);fillColor=rgb(255, 255, 255);" parent="rCRO5mDwt1Ey6ZGiLpo1-197" vertex="1">
                    <mxGeometry x="250" y="30" width="100" height="40" as="geometry"/>
                </mxCell>
                <mxCell id="59" value="First Name" style="ellipse;whiteSpace=wrap;html=1;align=center;" vertex="1" parent="rCRO5mDwt1Ey6ZGiLpo1-197">
                    <mxGeometry x="-20" y="190" width="100" height="40" as="geometry"/>
                </mxCell>
                <mxCell id="60" value="Last Name" style="ellipse;whiteSpace=wrap;html=1;align=center;" vertex="1" parent="rCRO5mDwt1Ey6ZGiLpo1-197">
                    <mxGeometry x="60" y="220" width="100" height="40" as="geometry"/>
                </mxCell>
                <mxCell id="rCRO5mDwt1Ey6ZGiLpo1-225" value="Cart Item" style="whiteSpace=wrap;html=1;align=center;" parent="1" vertex="1">
                    <mxGeometry x="1010" y="310" width="100" height="40" as="geometry"/>
                </mxCell>
                <mxCell id="rCRO5mDwt1Ey6ZGiLpo1-226" value="" style="endArrow=none;html=1;rounded=0;" parent="1" edge="1">
                    <mxGeometry relative="1" as="geometry">
                        <mxPoint x="870" y="330" as="sourcePoint"/>
                        <mxPoint x="1010" y="330" as="targetPoint"/>
                    </mxGeometry>
                </mxCell>
                <mxCell id="rCRO5mDwt1Ey6ZGiLpo1-228" value="Consists of" style="shape=rhombus;perimeter=rhombusPerimeter;whiteSpace=wrap;html=1;align=center;" parent="1" vertex="1">
                    <mxGeometry x="1010" y="470" width="120" height="60" as="geometry"/>
                </mxCell>
                <mxCell id="rCRO5mDwt1Ey6ZGiLpo1-229" value="" style="endArrow=none;html=1;rounded=0;entryX=0.5;entryY=0;entryDx=0;entryDy=0;" parent="1" target="rCRO5mDwt1Ey6ZGiLpo1-228" edge="1">
                    <mxGeometry relative="1" as="geometry">
                        <mxPoint x="1070" y="350" as="sourcePoint"/>
                        <mxPoint x="1140" y="350" as="targetPoint"/>
                    </mxGeometry>
                </mxCell>
                <mxCell id="rCRO5mDwt1Ey6ZGiLpo1-230" value="" style="endArrow=none;html=1;rounded=0;entryX=0.5;entryY=1;entryDx=0;entryDy=0;exitX=0.5;exitY=1;exitDx=0;exitDy=0;" parent="1" source="rCRO5mDwt1Ey6ZGiLpo1-41" target="rCRO5mDwt1Ey6ZGiLpo1-228" edge="1">
                    <mxGeometry relative="1" as="geometry">
                        <mxPoint x="710" y="350" as="sourcePoint"/>
                        <mxPoint x="770" y="350" as="targetPoint"/>
                        <Array as="points">
                            <mxPoint x="805" y="720"/>
                            <mxPoint x="1070" y="720"/>
                        </Array>
                    </mxGeometry>
                </mxCell>
                <mxCell id="rCRO5mDwt1Ey6ZGiLpo1-231" value="Quantity" style="ellipse;whiteSpace=wrap;html=1;align=center;" parent="1" vertex="1">
                    <mxGeometry x="1030" y="210" width="100" height="40" as="geometry"/>
                </mxCell>
                <mxCell id="rCRO5mDwt1Ey6ZGiLpo1-232" value="" style="endArrow=none;html=1;rounded=0;entryX=0.59;entryY=0.025;entryDx=0;entryDy=0;exitX=0.5;exitY=1;exitDx=0;exitDy=0;entryPerimeter=0;" parent="1" source="rCRO5mDwt1Ey6ZGiLpo1-231" target="rCRO5mDwt1Ey6ZGiLpo1-225" edge="1">
                    <mxGeometry relative="1" as="geometry">
                        <mxPoint x="1080" y="360" as="sourcePoint"/>
                        <mxPoint x="1080" y="480" as="targetPoint"/>
                    </mxGeometry>
                </mxCell>
                <mxCell id="rCRO5mDwt1Ey6ZGiLpo1-233" value="" style="endArrow=none;html=1;rounded=0;entryX=1;entryY=0.25;entryDx=0;entryDy=0;exitX=0;exitY=1;exitDx=0;exitDy=0;" parent="1" source="rCRO5mDwt1Ey6ZGiLpo1-262" target="rCRO5mDwt1Ey6ZGiLpo1-225" edge="1">
                    <mxGeometry relative="1" as="geometry">
                        <mxPoint x="1090" y="370" as="sourcePoint"/>
                        <mxPoint x="1090" y="490" as="targetPoint"/>
                    </mxGeometry>
                </mxCell>
                <mxCell id="rCRO5mDwt1Ey6ZGiLpo1-262" value="Cost of required number of items.&amp;nbsp;" style="ellipse;whiteSpace=wrap;html=1;align=center;dashed=1;" parent="1" vertex="1">
                    <mxGeometry x="1150" y="260" width="100" height="40" as="geometry"/>
                </mxCell>
                <mxCell id="2" value="House Number" style="ellipse;whiteSpace=wrap;html=1;align=center;" vertex="1" parent="1">
                    <mxGeometry x="120" y="760" width="100" height="40" as="geometry"/>
                </mxCell>
                <mxCell id="3" value="Locality" style="ellipse;whiteSpace=wrap;html=1;align=center;" vertex="1" parent="1">
                    <mxGeometry x="120" y="810" width="100" height="40" as="geometry"/>
                </mxCell>
                <mxCell id="4" value="City" style="ellipse;whiteSpace=wrap;html=1;align=center;" vertex="1" parent="1">
                    <mxGeometry x="120" y="860" width="100" height="40" as="geometry"/>
                </mxCell>
                <mxCell id="5" value="State" style="ellipse;whiteSpace=wrap;html=1;align=center;" vertex="1" parent="1">
                    <mxGeometry x="120" y="910" width="100" height="40" as="geometry"/>
                </mxCell>
                <mxCell id="6" value="Pin Code" style="ellipse;whiteSpace=wrap;html=1;align=center;" vertex="1" parent="1">
                    <mxGeometry x="120" y="960" width="100" height="40" as="geometry"/>
                </mxCell>
                <mxCell id="7" value="" style="endArrow=none;html=1;rounded=0;exitX=1;exitY=0.5;exitDx=0;exitDy=0;" edge="1" parent="1" source="2">
                    <mxGeometry relative="1" as="geometry">
                        <mxPoint x="-60" y="-10" as="sourcePoint"/>
                        <mxPoint x="320.00277719920473" y="871.6692124326044" as="targetPoint"/>
                    </mxGeometry>
                </mxCell>
                <mxCell id="8" value="" style="endArrow=none;html=1;rounded=0;exitX=1;exitY=0.5;exitDx=0;exitDy=0;entryX=0;entryY=0;entryDx=0;entryDy=0;" edge="1" parent="1">
                    <mxGeometry relative="1" as="geometry">
                        <mxPoint x="220" y="828.3299999999999" as="sourcePoint"/>
                        <mxPoint x="304.64466094067257" y="875.8578643762689" as="targetPoint"/>
                    </mxGeometry>
                </mxCell>
                <mxCell id="9" value="" style="endArrow=none;html=1;rounded=0;exitX=1;exitY=0.5;exitDx=0;exitDy=0;entryX=0;entryY=0.5;entryDx=0;entryDy=0;" edge="1" parent="1">
                    <mxGeometry relative="1" as="geometry">
                        <mxPoint x="220" y="884.1700000000001" as="sourcePoint"/>
                        <mxPoint x="290" y="890" as="targetPoint"/>
                    </mxGeometry>
                </mxCell>
                <mxCell id="10" value="" style="endArrow=none;html=1;rounded=0;exitX=0;exitY=1;exitDx=0;exitDy=0;entryX=1;entryY=0.5;entryDx=0;entryDy=0;" edge="1" parent="1" target="5">
                    <mxGeometry relative="1" as="geometry">
                        <mxPoint x="304.64466094067257" y="904.1421356237308" as="sourcePoint"/>
                        <mxPoint x="60.00277719923588" y="101.669212432633" as="targetPoint"/>
                    </mxGeometry>
                </mxCell>
                <mxCell id="11" value="" style="endArrow=none;html=1;rounded=0;exitX=1;exitY=0.5;exitDx=0;exitDy=0;entryX=0.26;entryY=0.95;entryDx=0;entryDy=0;entryPerimeter=0;" edge="1" parent="1" source="6">
                    <mxGeometry relative="1" as="geometry">
                        <mxPoint x="-30" y="20" as="sourcePoint"/>
                        <mxPoint x="316" y="908" as="targetPoint"/>
                    </mxGeometry>
                </mxCell>
                <mxCell id="24" value="Shipping Details" style="ellipse;whiteSpace=wrap;html=1;align=center;" vertex="1" parent="1">
                    <mxGeometry x="450" y="1080" width="100" height="40" as="geometry"/>
                </mxCell>
                <mxCell id="25" value="Shipping Name" style="ellipse;whiteSpace=wrap;html=1;align=center;" vertex="1" parent="1">
                    <mxGeometry x="280" y="1060" width="100" height="40" as="geometry"/>
                </mxCell>
                <mxCell id="26" value="Shipping Address" style="ellipse;whiteSpace=wrap;html=1;align=center;" vertex="1" parent="1">
                    <mxGeometry x="280" y="1110" width="100" height="40" as="geometry"/>
                </mxCell>
                <mxCell id="27" value="Shipping Phone Number" style="ellipse;whiteSpace=wrap;html=1;align=center;" vertex="1" parent="1">
                    <mxGeometry x="280" y="1160" width="100" height="40" as="geometry"/>
                </mxCell>
                <mxCell id="29" value="" style="endArrow=none;html=1;rounded=0;exitX=1;exitY=0.5;exitDx=0;exitDy=0;entryX=0;entryY=0;entryDx=0;entryDy=0;" edge="1" parent="1" source="25" target="24">
                    <mxGeometry relative="1" as="geometry">
                        <mxPoint x="100" y="290" as="sourcePoint"/>
                        <mxPoint x="260" y="290" as="targetPoint"/>
                    </mxGeometry>
                </mxCell>
                <mxCell id="30" value="" style="endArrow=none;html=1;rounded=0;exitX=1;exitY=0.5;exitDx=0;exitDy=0;entryX=0;entryY=0.5;entryDx=0;entryDy=0;" edge="1" parent="1" target="24">
                    <mxGeometry relative="1" as="geometry">
                        <mxPoint x="380" y="1128.33" as="sourcePoint"/>
                        <mxPoint x="440" y="1128" as="targetPoint"/>
                    </mxGeometry>
                </mxCell>
                <mxCell id="31" value="" style="endArrow=none;html=1;rounded=0;exitX=1;exitY=0.5;exitDx=0;exitDy=0;entryX=0;entryY=1;entryDx=0;entryDy=0;" edge="1" parent="1" target="24">
                    <mxGeometry relative="1" as="geometry">
                        <mxPoint x="380" y="1184.17" as="sourcePoint"/>
                        <mxPoint x="450" y="1140" as="targetPoint"/>
                    </mxGeometry>
                </mxCell>
                <mxCell id="33" value="House Number" style="ellipse;whiteSpace=wrap;html=1;align=center;" vertex="1" parent="1">
                    <mxGeometry x="110" y="1030" width="100" height="40" as="geometry"/>
                </mxCell>
                <mxCell id="34" value="Locality" style="ellipse;whiteSpace=wrap;html=1;align=center;" vertex="1" parent="1">
                    <mxGeometry x="110" y="1080" width="100" height="40" as="geometry"/>
                </mxCell>
                <mxCell id="35" value="City" style="ellipse;whiteSpace=wrap;html=1;align=center;" vertex="1" parent="1">
                    <mxGeometry x="110" y="1130" width="100" height="40" as="geometry"/>
                </mxCell>
                <mxCell id="36" value="State" style="ellipse;whiteSpace=wrap;html=1;align=center;" vertex="1" parent="1">
                    <mxGeometry x="110" y="1180" width="100" height="40" as="geometry"/>
                </mxCell>
                <mxCell id="37" value="Pin Code" style="ellipse;whiteSpace=wrap;html=1;align=center;" vertex="1" parent="1">
                    <mxGeometry x="110" y="1230" width="100" height="40" as="geometry"/>
                </mxCell>
                <mxCell id="38" value="" style="endArrow=none;html=1;rounded=0;exitX=1;exitY=0.5;exitDx=0;exitDy=0;" edge="1" parent="1" source="33">
                    <mxGeometry relative="1" as="geometry">
                        <mxPoint x="-70" y="230" as="sourcePoint"/>
                        <mxPoint x="310.00277719920473" y="1111.6692124326044" as="targetPoint"/>
                    </mxGeometry>
                </mxCell>
                <mxCell id="39" value="" style="endArrow=none;html=1;rounded=0;exitX=1;exitY=0.5;exitDx=0;exitDy=0;entryX=0;entryY=0;entryDx=0;entryDy=0;" edge="1" parent="1" source="34">
                    <mxGeometry relative="1" as="geometry">
                        <mxPoint x="210" y="1068.33" as="sourcePoint"/>
                        <mxPoint x="294.64466094067257" y="1115.857864376269" as="targetPoint"/>
                    </mxGeometry>
                </mxCell>
                <mxCell id="40" value="" style="endArrow=none;html=1;rounded=0;exitX=1;exitY=0.5;exitDx=0;exitDy=0;entryX=0;entryY=0.5;entryDx=0;entryDy=0;" edge="1" parent="1" source="35">
                    <mxGeometry relative="1" as="geometry">
                        <mxPoint x="210" y="1124.17" as="sourcePoint"/>
                        <mxPoint x="280" y="1130" as="targetPoint"/>
                    </mxGeometry>
                </mxCell>
                <mxCell id="41" value="" style="endArrow=none;html=1;rounded=0;exitX=0;exitY=1;exitDx=0;exitDy=0;entryX=1;entryY=0.5;entryDx=0;entryDy=0;" edge="1" parent="1" target="36">
                    <mxGeometry relative="1" as="geometry">
                        <mxPoint x="294.64466094067257" y="1144.1421356237308" as="sourcePoint"/>
                        <mxPoint x="50.00277719923588" y="341.669212432633" as="targetPoint"/>
                    </mxGeometry>
                </mxCell>
                <mxCell id="42" value="" style="endArrow=none;html=1;rounded=0;exitX=1;exitY=0.5;exitDx=0;exitDy=0;entryX=0.26;entryY=0.95;entryDx=0;entryDy=0;entryPerimeter=0;" edge="1" parent="1" source="37">
                    <mxGeometry relative="1" as="geometry">
                        <mxPoint x="-40" y="260" as="sourcePoint"/>
                        <mxPoint x="306" y="1148" as="targetPoint"/>
                    </mxGeometry>
                </mxCell>
                <mxCell id="rCRO5mDwt1Ey6ZGiLpo1-209" value="" style="endArrow=none;html=1;rounded=0;exitX=0;exitY=0.75;exitDx=0;exitDy=0;" parent="1" source="rCRO5mDwt1Ey6ZGiLpo1-198" edge="1" target="24">
                    <mxGeometry relative="1" as="geometry">
                        <mxPoint x="720" y="1020" as="sourcePoint"/>
                        <mxPoint x="565.3553390593274" y="1025.857864376269" as="targetPoint"/>
                    </mxGeometry>
                </mxCell>
                <mxCell id="49" value="First Name" style="ellipse;whiteSpace=wrap;html=1;align=center;" vertex="1" parent="1">
                    <mxGeometry x="270" y="730" width="100" height="40" as="geometry"/>
                </mxCell>
                <mxCell id="55" value="Last Name" style="ellipse;whiteSpace=wrap;html=1;align=center;" vertex="1" parent="1">
                    <mxGeometry x="350" y="760" width="100" height="40" as="geometry"/>
                </mxCell>
                <mxCell id="57" value="" style="endArrow=none;html=1;rounded=0;exitX=0.5;exitY=1;exitDx=0;exitDy=0;" edge="1" parent="1" source="49">
                    <mxGeometry relative="1" as="geometry">
                        <mxPoint x="210" y="640" as="sourcePoint"/>
                        <mxPoint x="320" y="820" as="targetPoint"/>
                    </mxGeometry>
                </mxCell>
                <mxCell id="58" value="" style="endArrow=none;html=1;rounded=0;exitX=0.5;exitY=1;exitDx=0;exitDy=0;entryX=1;entryY=0;entryDx=0;entryDy=0;" edge="1" parent="1" source="55" target="rCRO5mDwt1Ey6ZGiLpo1-211">
                    <mxGeometry relative="1" as="geometry">
                        <mxPoint x="320" y="760" as="sourcePoint"/>
                        <mxPoint x="330" y="830" as="targetPoint"/>
                    </mxGeometry>
                </mxCell>
                <mxCell id="61" value="" style="endArrow=none;html=1;rounded=0;exitX=0;exitY=1;exitDx=0;exitDy=0;" edge="1" parent="1" source="59" target="25">
                    <mxGeometry relative="1" as="geometry">
                        <mxPoint x="330" y="780" as="sourcePoint"/>
                        <mxPoint x="330" y="830" as="targetPoint"/>
                    </mxGeometry>
                </mxCell>
                <mxCell id="62" value="" style="endArrow=none;html=1;rounded=0;exitX=0;exitY=0.5;exitDx=0;exitDy=0;entryX=0.5;entryY=0;entryDx=0;entryDy=0;" edge="1" parent="1" source="60" target="25">
                    <mxGeometry relative="1" as="geometry">
                        <mxPoint x="294.64466094067257" y="1034.1421356237308" as="sourcePoint"/>
                        <mxPoint x="324.44804697926907" y="1070.9920574191065" as="targetPoint"/>
                    </mxGeometry>
                </mxCell>
                <mxCell id="63" value="Warehouse" style="whiteSpace=wrap;html=1;align=center;" vertex="1" parent="1">
                    <mxGeometry x="1330" y="850" width="100" height="40" as="geometry"/>
                </mxCell>
                <mxCell id="65" value="Warehouse ID" style="ellipse;whiteSpace=wrap;html=1;align=center;fontStyle=4;" vertex="1" parent="1">
                    <mxGeometry x="1210" y="780" width="100" height="40" as="geometry"/>
                </mxCell>
            </root>
        </mxGraphModel>
    </diagram>
</mxfile>